<svg width="19" height="19" viewBox="0 0 19 19" fill="none" xmlns="http://www.w3.org/2000/svg">
<path d="M9.5 0C4.256 0 0 4.256 0 9.5C0 14.744 4.256 19 9.5 19C14.744 19 19 14.744 19 9.5C19 4.256 14.744 0 9.5 0ZM6.9255 13.5755L3.515 10.165C3.1445 9.7945 3.1445 9.196 3.515 8.8255C3.8855 8.455 4.484 8.455 4.8545 8.8255L7.6 11.5615L14.136 5.0255C14.5065 4.655 15.105 4.655 15.4755 5.0255C15.846 5.396 15.846 5.9945 15.4755 6.365L8.265 13.5755C7.904 13.946 7.296 13.946 6.9255 13.5755Z" fill="#2EC721"/>
</svg>
