<svg width="40" height="28" viewBox="0 0 40 28" fill="none" xmlns="http://www.w3.org/2000/svg">
<path d="M13.5333 27.7221C13.9444 27.754 14.3578 27.7002 14.7497 27.5637C15.1415 27.4273 15.5043 27.211 15.8171 26.9271L38.2479 6.57415C38.8624 5.99684 39.2376 5.18934 39.2927 4.32555C39.3479 3.46175 39.0786 2.61079 38.5428 1.95593C38.007 1.30107 37.2476 0.894725 36.4282 0.824399C35.6087 0.754074 34.7948 1.0254 34.1617 1.57994L14.1067 19.7744L6.51836 10.4961C6.25256 10.1596 5.92557 9.88232 5.55647 9.68053C5.18737 9.47875 4.78355 9.35648 4.36858 9.32087C3.9536 9.28525 3.53578 9.33701 3.1395 9.4731C2.74321 9.6092 2.3764 9.82692 2.06045 10.1135C1.74451 10.4002 1.48577 10.75 1.29933 11.1426C1.11289 11.5351 1.00248 11.9626 0.974541 12.4C0.946606 12.8375 1.00171 13.2761 1.13662 13.6903C1.27154 14.1046 1.48358 14.4861 1.76036 14.8127L11.3918 26.5881C11.9336 27.2505 12.7039 27.6584 13.5333 27.7221V27.7221Z" fill="#2EC721"/>
</svg>
