<svg width="52" height="52" viewBox="0 0 52 52" fill="none" xmlns="http://www.w3.org/2000/svg">
<path d="M19.5 26C15.925 26 13 28.925 13 32.5C13 36.075 15.925 39 19.5 39C23.075 39 26 36.075 26 32.5C26 28.925 23.075 26 19.5 26ZM6.5 13C2.925 13 0 15.925 0 19.5C0 23.075 2.925 26 6.5 26C10.075 26 13 23.075 13 19.5C13 15.925 10.075 13 6.5 13ZM6.5 39C2.925 39 0 41.925 0 45.5C0 49.075 2.925 52 6.5 52C10.075 52 13 49.075 13 45.5C13 41.925 10.075 39 6.5 39ZM45.5 13C49.075 13 52 10.075 52 6.5C52 2.925 49.075 0 45.5 0C41.925 0 39 2.925 39 6.5C39 10.075 41.925 13 45.5 13ZM32.5 39C28.925 39 26 41.925 26 45.5C26 49.075 28.925 52 32.5 52C36.075 52 39 49.075 39 45.5C39 41.925 36.075 39 32.5 39ZM45.5 26C41.925 26 39 28.925 39 32.5C39 36.075 41.925 39 45.5 39C49.075 39 52 36.075 52 32.5C52 28.925 49.075 26 45.5 26ZM32.5 13C28.925 13 26 15.925 26 19.5C26 23.075 28.925 26 32.5 26C36.075 26 39 23.075 39 19.5C39 15.925 36.075 13 32.5 13ZM19.5 0C15.925 0 13 2.925 13 6.5C13 10.075 15.925 13 19.5 13C23.075 13 26 10.075 26 6.5C26 2.925 23.075 0 19.5 0Z" fill="white"/>
</svg>
