<svg width="40" height="56" viewBox="0 0 40 56" fill="none" xmlns="http://www.w3.org/2000/svg">
<path d="M34.1176 18.6667C33.7176 18.6667 33.3176 18.7133 32.9412 18.7833V10.5C32.9412 7.28 30.3059 4.66667 27.0588 4.66667C26.6118 4.66667 26.1882 4.71333 25.7882 4.80667C25.2941 2.07667 22.8941 0 20 0C17.5059 0 15.3882 1.54 14.5176 3.71C14.0235 3.57 13.4824 3.5 12.9412 3.5C9.69412 3.5 7.05882 6.11333 7.05882 9.33333V10.6167C6.68235 10.5467 6.28235 10.5 5.88235 10.5C2.63529 10.5 0 13.1133 0 16.3333V36.1667C0 47.11 8.96471 56 20 56C31.0353 56 40 47.11 40 36.1667V24.5C40 21.28 37.3647 18.6667 34.1176 18.6667ZM35.2941 36.1667C35.2941 44.5433 28.4471 51.3333 20 51.3333C11.5529 51.3333 4.70588 44.5433 4.70588 36.1667V16.3333C4.70588 15.68 5.22353 15.1667 5.88235 15.1667C6.54118 15.1667 7.05882 15.68 7.05882 16.3333V28H11.7647V9.33333C11.7647 8.68 12.2824 8.16667 12.9412 8.16667C13.6 8.16667 14.1176 8.68 14.1176 9.33333V25.6667H18.8235V5.83333C18.8235 5.18 19.3412 4.66667 20 4.66667C20.6588 4.66667 21.1765 5.18 21.1765 5.83333V25.6667H25.8824V10.5C25.8824 9.84667 26.4 9.33333 27.0588 9.33333C27.7176 9.33333 28.2353 9.84667 28.2353 10.5V31.3133C24.0706 33.11 21.1765 37.2167 21.1765 42H25.8824C25.8824 38.1267 29.0353 35 32.9412 35V24.5C32.9412 23.8467 33.4588 23.3333 34.1176 23.3333C34.7765 23.3333 35.2941 23.8467 35.2941 24.5V36.1667Z" fill="#D52027"/>
</svg>
