<svg width="56" height="56" viewBox="0 0 56 56" fill="none" xmlns="http://www.w3.org/2000/svg">
<path d="M17.1434 18.7846L2.81808 10.8755L0.181698 15.6506L14.507 23.5597L17.1434 18.7846ZM26.5953 13.9095L24.3283 6.05328L19.1032 7.56108L21.3702 15.4172L26.5953 13.9095ZM44.6506 2.8183L39.8755 0.181919L31.9663 14.5072L36.7414 17.1436L44.6506 2.8183ZM49.4728 24.3285L47.965 19.1034L40.1088 21.3704L41.6166 26.5955L49.4728 24.3285ZM41.0189 31.9666L38.3825 36.7416L52.7078 44.6508L55.3441 39.8757L41.0189 31.9666ZM31.7175 20.6005C27.7542 18.4123 22.7885 19.8452 20.6003 23.8086C18.4121 27.7719 19.845 32.7376 23.8083 34.9258C27.7717 37.114 32.7374 35.681 34.9256 31.7177C37.1138 27.7544 35.6808 22.7887 31.7175 20.6005ZM28.9305 41.6168L31.1976 49.473L36.4227 47.9652L34.1556 40.109L28.9305 41.6168ZM6.05306 31.1978L7.56086 36.4229L15.417 34.1559L13.9092 28.9308L6.05306 31.1978ZM10.8753 52.708L15.6504 55.3444L23.5595 41.0191L18.7844 38.3827L10.8753 52.708Z" fill="white"/>
</svg>
