<svg width="60" height="60" viewBox="0 0 60 60" fill="none" xmlns="http://www.w3.org/2000/svg">
<path d="M11.0526 33.1579C9.31579 33.1579 7.89474 34.5789 7.89474 36.3158C7.89474 38.0526 9.31579 39.4737 11.0526 39.4737C12.7895 39.4737 14.2105 38.0526 14.2105 36.3158C14.2105 34.5789 12.7895 33.1579 11.0526 33.1579ZM11.0526 45.7895C9.31579 45.7895 7.89474 47.2105 7.89474 48.9474C7.89474 50.6842 9.31579 52.1053 11.0526 52.1053C12.7895 52.1053 14.2105 50.6842 14.2105 48.9474C14.2105 47.2105 12.7895 45.7895 11.0526 45.7895ZM11.0526 20.5263C9.31579 20.5263 7.89474 21.9474 7.89474 23.6842C7.89474 25.4211 9.31579 26.8421 11.0526 26.8421C12.7895 26.8421 14.2105 25.4211 14.2105 23.6842C14.2105 21.9474 12.7895 20.5263 11.0526 20.5263ZM1.57895 22.1053C0.694737 22.1053 0 22.8 0 23.6842C0 24.5684 0.694737 25.2632 1.57895 25.2632C2.46316 25.2632 3.15789 24.5684 3.15789 23.6842C3.15789 22.8 2.46316 22.1053 1.57895 22.1053ZM11.0526 7.89474C9.31579 7.89474 7.89474 9.31579 7.89474 11.0526C7.89474 12.7895 9.31579 14.2105 11.0526 14.2105C12.7895 14.2105 14.2105 12.7895 14.2105 11.0526C14.2105 9.31579 12.7895 7.89474 11.0526 7.89474ZM58.4211 25.2632C59.3053 25.2632 60 24.5684 60 23.6842C60 22.8 59.3053 22.1053 58.4211 22.1053C57.5368 22.1053 56.8421 22.8 56.8421 23.6842C56.8421 24.5684 57.5368 25.2632 58.4211 25.2632ZM36.3158 14.2105C38.0526 14.2105 39.4737 12.7895 39.4737 11.0526C39.4737 9.31579 38.0526 7.89474 36.3158 7.89474C34.5789 7.89474 33.1579 9.31579 33.1579 11.0526C33.1579 12.7895 34.5789 14.2105 36.3158 14.2105ZM36.3158 3.15789C37.2 3.15789 37.8947 2.46316 37.8947 1.57895C37.8947 0.694737 37.2 0 36.3158 0C35.4316 0 34.7368 0.694737 34.7368 1.57895C34.7368 2.46316 35.4316 3.15789 36.3158 3.15789ZM1.57895 34.7368C0.694737 34.7368 0 35.4316 0 36.3158C0 37.2 0.694737 37.8947 1.57895 37.8947C2.46316 37.8947 3.15789 37.2 3.15789 36.3158C3.15789 35.4316 2.46316 34.7368 1.57895 34.7368ZM23.6842 56.8421C22.8 56.8421 22.1053 57.5368 22.1053 58.4211C22.1053 59.3053 22.8 60 23.6842 60C24.5684 60 25.2632 59.3053 25.2632 58.4211C25.2632 57.5368 24.5684 56.8421 23.6842 56.8421ZM23.6842 3.15789C24.5684 3.15789 25.2632 2.46316 25.2632 1.57895C25.2632 0.694737 24.5684 0 23.6842 0C22.8 0 22.1053 0.694737 22.1053 1.57895C22.1053 2.46316 22.8 3.15789 23.6842 3.15789ZM23.6842 14.2105C25.4211 14.2105 26.8421 12.7895 26.8421 11.0526C26.8421 9.31579 25.4211 7.89474 23.6842 7.89474C21.9474 7.89474 20.5263 9.31579 20.5263 11.0526C20.5263 12.7895 21.9474 14.2105 23.6842 14.2105ZM23.6842 31.5789C21.0632 31.5789 18.9474 33.6947 18.9474 36.3158C18.9474 38.9368 21.0632 41.0526 23.6842 41.0526C26.3053 41.0526 28.4211 38.9368 28.4211 36.3158C28.4211 33.6947 26.3053 31.5789 23.6842 31.5789ZM48.9474 33.1579C47.2105 33.1579 45.7895 34.5789 45.7895 36.3158C45.7895 38.0526 47.2105 39.4737 48.9474 39.4737C50.6842 39.4737 52.1053 38.0526 52.1053 36.3158C52.1053 34.5789 50.6842 33.1579 48.9474 33.1579ZM48.9474 45.7895C47.2105 45.7895 45.7895 47.2105 45.7895 48.9474C45.7895 50.6842 47.2105 52.1053 48.9474 52.1053C50.6842 52.1053 52.1053 50.6842 52.1053 48.9474C52.1053 47.2105 50.6842 45.7895 48.9474 45.7895ZM48.9474 20.5263C47.2105 20.5263 45.7895 21.9474 45.7895 23.6842C45.7895 25.4211 47.2105 26.8421 48.9474 26.8421C50.6842 26.8421 52.1053 25.4211 52.1053 23.6842C52.1053 21.9474 50.6842 20.5263 48.9474 20.5263ZM48.9474 7.89474C47.2105 7.89474 45.7895 9.31579 45.7895 11.0526C45.7895 12.7895 47.2105 14.2105 48.9474 14.2105C50.6842 14.2105 52.1053 12.7895 52.1053 11.0526C52.1053 9.31579 50.6842 7.89474 48.9474 7.89474ZM58.4211 34.7368C57.5368 34.7368 56.8421 35.4316 56.8421 36.3158C56.8421 37.2 57.5368 37.8947 58.4211 37.8947C59.3053 37.8947 60 37.2 60 36.3158C60 35.4316 59.3053 34.7368 58.4211 34.7368ZM36.3158 45.7895C34.5789 45.7895 33.1579 47.2105 33.1579 48.9474C33.1579 50.6842 34.5789 52.1053 36.3158 52.1053C38.0526 52.1053 39.4737 50.6842 39.4737 48.9474C39.4737 47.2105 38.0526 45.7895 36.3158 45.7895ZM36.3158 56.8421C35.4316 56.8421 34.7368 57.5368 34.7368 58.4211C34.7368 59.3053 35.4316 60 36.3158 60C37.2 60 37.8947 59.3053 37.8947 58.4211C37.8947 57.5368 37.2 56.8421 36.3158 56.8421ZM23.6842 18.9474C21.0632 18.9474 18.9474 21.0632 18.9474 23.6842C18.9474 26.3053 21.0632 28.4211 23.6842 28.4211C26.3053 28.4211 28.4211 26.3053 28.4211 23.6842C28.4211 21.0632 26.3053 18.9474 23.6842 18.9474ZM23.6842 45.7895C21.9474 45.7895 20.5263 47.2105 20.5263 48.9474C20.5263 50.6842 21.9474 52.1053 23.6842 52.1053C25.4211 52.1053 26.8421 50.6842 26.8421 48.9474C26.8421 47.2105 25.4211 45.7895 23.6842 45.7895ZM36.3158 31.5789C33.6947 31.5789 31.5789 33.6947 31.5789 36.3158C31.5789 38.9368 33.6947 41.0526 36.3158 41.0526C38.9368 41.0526 41.0526 38.9368 41.0526 36.3158C41.0526 33.6947 38.9368 31.5789 36.3158 31.5789ZM36.3158 18.9474C33.6947 18.9474 31.5789 21.0632 31.5789 23.6842C31.5789 26.3053 33.6947 28.4211 36.3158 28.4211C38.9368 28.4211 41.0526 26.3053 41.0526 23.6842C41.0526 21.0632 38.9368 18.9474 36.3158 18.9474Z" fill="white"/>
</svg>
