<svg width="37" height="26" viewBox="0 0 37 26" fill="none" xmlns="http://www.w3.org/2000/svg">
<path d="M31.1136 6.5H26.9091V3.25C26.9091 1.4625 25.3955 0 23.5455 0H3.36364C1.51364 0 0 1.4625 0 3.25V17.875C0 19.6625 1.51364 21.125 3.36364 21.125C3.36364 23.8225 5.61727 26 8.40909 26C11.2009 26 13.4545 23.8225 13.4545 21.125H23.5455C23.5455 23.8225 25.7991 26 28.5909 26C31.3827 26 33.6364 23.8225 33.6364 21.125H35.3182C36.2432 21.125 37 20.3937 37 19.5V14.0887C37 13.39 36.7645 12.7075 36.3273 12.1388L32.4591 7.15C32.1395 6.74375 31.635 6.5 31.1136 6.5ZM8.40909 22.75C7.48409 22.75 6.72727 22.0187 6.72727 21.125C6.72727 20.2313 7.48409 19.5 8.40909 19.5C9.33409 19.5 10.0909 20.2313 10.0909 21.125C10.0909 22.0187 9.33409 22.75 8.40909 22.75ZM31.1136 8.9375L34.41 13H26.9091V8.9375H31.1136ZM28.5909 22.75C27.6659 22.75 26.9091 22.0187 26.9091 21.125C26.9091 20.2313 27.6659 19.5 28.5909 19.5C29.5159 19.5 30.2727 20.2313 30.2727 21.125C30.2727 22.0187 29.5159 22.75 28.5909 22.75Z" fill="#FEFEFE"/>
</svg>
