<svg width="49" height="47" viewBox="0 0 49 47" fill="none" xmlns="http://www.w3.org/2000/svg">
<path d="M38.1111 5.22222H32.6667V0H38.1111V5.22222ZM43.5556 15.6667H49V10.4444H43.5556V15.6667ZM43.5556 26.1111H49V20.8889H43.5556V26.1111ZM21.7778 47H27.2222V41.7778H21.7778V47ZM10.8889 5.22222H16.3333V0H10.8889V5.22222ZM0 36.5556H5.44444V31.3333H0V36.5556ZM5.44444 47V41.7778H0C0 44.65 2.45 47 5.44444 47ZM43.5556 0V5.22222H49C49 2.35 46.55 0 43.5556 0ZM21.7778 5.22222H27.2222V0H21.7778V5.22222ZM0 15.6667H5.44444V10.4444H0V15.6667ZM10.8889 47H16.3333V41.7778H10.8889V47ZM0 26.1111H5.44444V20.8889H0V26.1111ZM0 5.22222H5.44444V0C2.45 0 0 2.35 0 5.22222Z" fill="#D52027"/>
<path d="M10.8889 41.7778L16.3333 41.7778L16.3333 47L10.8889 47L10.8889 41.7778ZM5.44444 31.3333L-1.95083e-06 31.3333L-2.41318e-06 36.5556L5.44444 36.5556L5.44444 31.3333ZM5.44444 20.8889L-1.02615e-06 20.8889L-1.48849e-06 26.1111L5.44444 26.1111L5.44444 20.8889ZM27.2222 3.60364e-06L21.7778 3.13364e-06L21.7778 5.22223L27.2222 5.22223L27.2222 3.60364e-06ZM38.1111 41.7778L32.6667 41.7778L32.6667 47L38.1111 47L38.1111 41.7778ZM49 10.4445L43.5556 10.4445L43.5556 15.6667L49 15.6667L49 10.4445ZM43.5556 5.01363e-06L43.5556 5.22223L49 5.22223C49 2.35001 46.55 5.27213e-06 43.5556 5.01363e-06ZM5.44444 47L5.44444 41.7778L-2.87552e-06 41.7778C-3.12981e-06 44.65 2.45 47 5.44444 47ZM27.2222 41.7778L21.7778 41.7778L21.7778 47L27.2222 47L27.2222 41.7778ZM49 31.3333L43.5556 31.3333L43.5556 36.5556L49 36.5556L49 31.3333ZM38.1111 4.54363e-06L32.6667 4.07364e-06L32.6667 5.22223L38.1111 5.22223L38.1111 4.54363e-06ZM49 20.8889L43.5556 20.8889L43.5556 26.1111L49 26.1111L49 20.8889ZM49 41.7778L43.5556 41.7778L43.5556 47C46.55 47 49 44.65 49 41.7778Z" fill="#D52027"/>
<path d="M38.1111 5.22222H32.6667V0H38.1111V5.22222ZM43.5556 15.6667H49V10.4444H43.5556V15.6667ZM43.5556 26.1111H49V20.8889H43.5556V26.1111ZM21.7778 47H27.2222V41.7778H21.7778V47ZM10.8889 5.22222H16.3333V0H10.8889V5.22222ZM0 36.5556H5.44444V31.3333H0V36.5556ZM5.44444 47V41.7778H0C0 44.65 2.45 47 5.44444 47ZM43.5556 0V5.22222H49C49 2.35 46.55 0 43.5556 0ZM21.7778 5.22222H27.2222V0H21.7778V5.22222ZM0 15.6667H5.44444V10.4444H0V15.6667ZM10.8889 47H16.3333V41.7778H10.8889V47ZM0 26.1111H5.44444V20.8889H0V26.1111ZM0 5.22222H5.44444V0C2.45 0 0 2.35 0 5.22222Z" fill="#D52027"/>
<path d="M10.8889 41.7778L16.3333 41.7778L16.3333 47L10.8889 47L10.8889 41.7778ZM5.44444 31.3333L-1.95083e-06 31.3333L-2.41318e-06 36.5556L5.44444 36.5556L5.44444 31.3333ZM5.44444 20.8889L-1.02615e-06 20.8889L-1.48849e-06 26.1111L5.44444 26.1111L5.44444 20.8889ZM27.2222 3.60364e-06L21.7778 3.13364e-06L21.7778 5.22223L27.2222 5.22223L27.2222 3.60364e-06ZM38.1111 41.7778L32.6667 41.7778L32.6667 47L38.1111 47L38.1111 41.7778ZM49 10.4445L43.5556 10.4445L43.5556 15.6667L49 15.6667L49 10.4445ZM43.5556 5.01363e-06L43.5556 5.22223L49 5.22223C49 2.35001 46.55 5.27213e-06 43.5556 5.01363e-06ZM5.44444 47L5.44444 41.7778L-2.87552e-06 41.7778C-3.12981e-06 44.65 2.45 47 5.44444 47ZM27.2222 41.7778L21.7778 41.7778L21.7778 47L27.2222 47L27.2222 41.7778ZM49 31.3333L43.5556 31.3333L43.5556 36.5556L49 36.5556L49 31.3333ZM38.1111 4.54363e-06L32.6667 4.07364e-06L32.6667 5.22223L38.1111 5.22223L38.1111 4.54363e-06ZM49 20.8889L43.5556 20.8889L43.5556 26.1111L49 26.1111L49 20.8889ZM49 41.7778L43.5556 41.7778L43.5556 47C46.55 47 49 44.65 49 41.7778Z" fill="#D52027"/>
</svg>
