<svg width="42" height="43" viewBox="0 0 42 43" fill="none" xmlns="http://www.w3.org/2000/svg">
<path d="M2.20178 38.9189C2.14567 39.413 1.69223 39.7126 1.20236 39.5945C0.786334 39.5647 0.500279 39.1291 0.556395 38.635C1.31008 34.953 2.89582 31.3306 5.47065 27.8622C3.0113 20.7121 3.2061 13.0881 10.3133 8.11785C13.5893 5.86191 17.9366 4.51295 22.3661 3.91707C28.8393 3.05252 35.7359 3.62967 40.2832 4.95173C41.0226 5.08773 41.0862 6.00553 40.5402 6.38152C39.0686 7.52141 37.7054 10.6616 36.0271 14.3603C34.5526 17.7416 32.865 21.5227 30.7249 24.8563C25.9819 31.9054 18.9121 36.5462 6.58779 29.1045C4.29997 32.2615 2.83486 35.5604 2.20178 38.9189ZM9.4432 23.1655C9.51061 21.0948 9.99404 19.0538 10.8748 17.2075C11.088 16.8076 11.532 16.5904 12.0126 16.7908C12.4192 16.903 12.6127 17.415 12.3996 17.8148C11.8526 18.9379 11.4627 20.1553 11.2392 21.3846C12.8314 19.9213 14.4974 18.5463 16.3299 17.1832C16.5376 13.8772 18.271 10.4315 20.641 8.02759C20.9281 7.71607 21.5105 7.7578 21.8153 8.0287C22.1107 8.38195 22.1378 8.88202 21.7675 9.18758C19.879 11.0448 18.785 13.291 18.2455 15.826C20.7997 14.0165 23.6867 12.2309 26.7401 10.4571C27.1842 10.2399 27.6741 10.358 27.8769 10.7876C28.0798 11.2173 27.9405 11.7054 27.4964 11.9227C23.7306 14.0605 20.3901 16.1457 17.447 18.4255C20.2395 18.2105 23.1049 18.8309 25.7758 19.6865C26.1732 19.881 26.4592 20.3166 26.246 20.7164C26.1067 21.2046 25.5794 21.4158 25.1728 21.3037C21.8642 20.1534 18.3239 19.5676 14.7909 20.3938C12.1899 22.6151 9.65347 25.007 7.57883 27.7641C18.7392 34.3753 25.0686 30.3456 29.3207 23.9255C31.4328 20.839 33.0372 17.0519 34.5023 13.753C35.8656 10.6128 37.0988 7.8784 38.4694 6.15013C34.1344 5.17536 28.2269 4.75209 22.5212 5.5056C18.3413 6.11936 14.2623 7.3215 11.2547 9.43062C5.15625 13.6429 4.92597 20.1021 6.66552 26.2043C7.53594 25.1874 8.48957 24.1764 9.4432 23.1655Z" fill="#2EC721"/>
</svg>
