<svg width="96" height="88" viewBox="0 0 96 88" fill="none" xmlns="http://www.w3.org/2000/svg">
<path d="M94.85 47.5554C93.85 42.868 89.45 39.9514 84.95 40.8889L67.95 44.4305C66.65 42.5555 64.65 41.2014 62.25 41.0972L36.95 39.3264C33.45 39.0139 29.85 40.1597 26.95 42.3472L12.65 53.2845L0.75 65.576C-0.25 66.6176 -0.25 68.2843 0.75 69.3259L17.15 86.409C17.65 86.9298 18.25 87.1382 18.95 87.1382C19.65 87.1382 20.25 86.9298 20.75 86.409L31.15 75.5758L48.75 77.8675C54.65 78.5966 60.75 77.2425 65.75 73.805L91.05 56.9303C94.15 54.9511 95.65 51.2012 94.85 47.5554ZM19.05 80.7841L6.15 67.451L13.85 59.4302L26.75 72.7634L19.05 80.7841ZM88.35 52.4512L63.05 69.3259C59.05 72.0342 54.15 73.18 49.45 72.5551L31.45 70.2634L17.75 55.8886L29.95 46.5138C31.85 45.0555 34.15 44.3263 36.55 44.5346L61.85 46.3054C63.05 46.4096 64.05 47.4513 64.15 48.7012C64.25 49.9512 63.45 51.097 62.25 51.4095L56.05 52.8678C53.65 53.4928 51.15 53.7012 48.65 53.597L41.45 53.2845C40.05 53.1803 38.85 54.3262 38.75 55.7845C38.65 57.2428 39.75 58.4928 41.15 58.5969L48.35 58.9094C51.35 59.1177 54.25 58.8053 57.15 58.0761L63.35 56.6178C66.65 55.8886 68.95 52.972 69.15 49.6387L85.75 46.2013C87.55 45.7846 89.35 47.0346 89.75 48.9096C90.15 50.1596 89.55 51.722 88.35 52.4512Z" fill="#D52127"/>
<path d="M30.4508 31.9307C30.9508 31.9307 31.3508 31.8265 31.8508 31.514C35.1508 29.3266 38.7508 27.4516 42.2508 25.8891C49.3508 30.0557 56.0508 32.2432 62.1508 32.2432C65.4509 32.2432 68.6509 31.6182 71.5509 30.3682C85.0509 24.6391 89.5509 7.97273 89.7509 7.34774C90.0509 6.41026 89.7509 5.36861 88.9509 4.63945C88.2509 4.01446 87.1509 3.80613 86.2509 4.22279C82.4509 5.88943 77.9509 4.32696 73.1509 2.66032C63.0508 -0.881297 50.5508 -5.15206 40.3508 20.8892C36.5508 22.5558 32.7508 24.535 29.0508 26.9308C27.8508 27.7641 27.5508 29.3266 28.2508 30.5766C28.7508 31.514 29.5508 31.9307 30.4508 31.9307ZM71.5509 7.66024C75.3509 9.01438 79.2509 10.3685 83.2509 10.1602C81.1509 14.9518 76.9509 22.3475 69.4509 25.4725C63.4509 27.9724 56.3508 27.2433 48.3508 23.3892C57.0508 20.2642 64.0508 19.1184 64.1508 19.1184C65.5509 18.9101 66.4509 17.5559 66.2508 16.0976C66.0508 14.6393 64.7509 13.7018 63.3509 13.9101C62.8509 14.0143 55.7508 15.1601 46.8508 18.3892C54.7508 1.827 62.6508 4.53529 71.5509 7.66024Z" fill="#333333"/>
</svg>
