<svg width="75" height="61" viewBox="0 0 75 61" fill="none" xmlns="http://www.w3.org/2000/svg">
<path d="M50.9164 39.1895L46.1829 30.6287L37.5253 28.9667L28.8677 27.3048C27.1967 34.391 25.6697 48.9047 26.4878 49.1402C27.306 49.3757 36.6585 54.0952 42.0377 56.5667L50.9164 39.1895Z" stroke="white" stroke-width="4"/>
<path d="M71.6097 38.6078L65.0938 31.3114L47.4728 31.9144C51.6722 38.2877 54.949 46.3698 55.799 46.4179C56.649 46.4659 59.0297 46.9436 64.8234 48.1592L71.6097 38.6078Z" stroke="white" stroke-width="4"/>
<path d="M21.3547 41.292L26.9012 38.1885L28.4521 27.2636C23.6435 26.3226 13.9949 24.5699 13.869 25.0873C13.7432 25.6047 10.8218 32.5659 9.37676 35.9818L21.3547 41.292Z" stroke="white" stroke-width="4"/>
<path d="M42.4166 26.0929L46.4654 30.9921L57.4912 30.5567C57.5538 25.6573 57.546 15.8508 57.0144 15.8199C56.4828 15.789 49.1102 14.1646 45.4904 13.3563L42.4166 26.0929Z" stroke="white" stroke-width="4"/>
<path d="M44.6761 10.0525L37.8708 3.02519L20.2885 4.3394C20.5264 11.6161 21.2152 26.1728 22.0664 26.1864C22.9176 26.2001 34.8064 28.1648 40.6444 29.1455L44.6761 10.0525Z" stroke="white" stroke-width="4"/>
<line x1="55.683" y1="16.4948" x2="63.683" y2="9.49485" stroke="white" stroke-width="4"/>
<line x1="69.3725" y1="54.1625" x2="64.3725" y2="47.1625" stroke="white" stroke-width="4"/>
<line x1="1.4253" y1="38.0843" x2="11.4253" y2="35.0843" stroke="white" stroke-width="4"/>
</svg>
