<svg width="38" height="37" viewBox="0 0 38 37" fill="none" xmlns="http://www.w3.org/2000/svg">
<path d="M16.1448 11.1831C15.4229 11.1831 14.8242 11.7882 14.8242 12.518V20.8652C14.8242 21.4881 15.1412 22.0577 15.6518 22.378L22.061 26.3648C22.6421 26.7207 23.3992 26.5605 23.769 25.991C24.174 25.3859 23.9803 24.5672 23.364 24.1934L17.4654 20.616V12.518C17.4654 11.7882 16.8667 11.1831 16.1448 11.1831Z" fill="#FEFEFE"/>
<path d="M28.7699 18.3022C28.8579 18.8896 28.9108 19.4769 28.9108 20.0821C28.9108 27.0233 23.4524 32.5408 16.5853 32.5408C9.71826 32.5408 4.25984 27.0233 4.25984 20.0821C4.25984 13.1408 9.71826 7.62335 16.5853 7.62335C17.8179 7.62335 18.9976 7.80133 20.1069 8.1395V4.47308C18.98 4.20611 17.8002 4.06372 16.5853 4.06372C7.7814 4.06372 0.738281 11.183 0.738281 20.0821C0.738281 28.9811 7.7814 36.1004 16.5853 36.1004C25.3892 36.1004 32.4323 28.9811 32.4323 20.0821C32.4323 19.4769 32.3971 18.8896 32.3267 18.3022H28.7699Z" fill="#FEFEFE"/>
<path d="M35.9544 5.84359H32.4328V2.28396C32.4328 1.30507 31.6405 0.50415 30.672 0.50415C29.7036 0.50415 28.9112 1.30507 28.9112 2.28396V5.84359H25.3897C24.4213 5.84359 23.6289 6.64451 23.6289 7.6234C23.6289 8.6023 24.4213 9.40322 25.3897 9.40322H28.9112V12.9628C28.9112 13.9417 29.7036 14.7427 30.672 14.7427C31.6405 14.7427 32.4328 13.9417 32.4328 12.9628V9.40322H35.9544C36.9228 9.40322 37.7151 8.6023 37.7151 7.6234C37.7151 6.64451 36.9228 5.84359 35.9544 5.84359Z" fill="#FEFEFE"/>
</svg>
