<svg width="67" height="51" viewBox="0 0 67 51" fill="none" xmlns="http://www.w3.org/2000/svg">
<path d="M61.8066 24.871C64.5324 24.871 66.7421 22.6613 66.7421 19.9355C66.7421 17.2097 64.5324 15 61.8066 15C59.0808 15 56.8711 17.2097 56.8711 19.9355C56.8711 22.6613 59.0808 24.871 61.8066 24.871Z" fill="white"/>
<path d="M56.8066 46.871C59.5324 46.871 61.7421 44.6613 61.7421 41.9355C61.7421 39.2097 59.5324 37 56.8066 37C54.0808 37 51.8711 39.2097 51.8711 41.9355C51.8711 44.6613 54.0808 46.871 56.8066 46.871Z" fill="white"/>
<path d="M24.6777 29.6129C27.4035 29.6129 29.6132 27.4032 29.6132 24.6774C29.6132 21.9516 27.4035 19.7419 24.6777 19.7419C21.9519 19.7419 19.7422 21.9516 19.7422 24.6774C19.7422 27.4032 21.9519 29.6129 24.6777 29.6129Z" fill="white"/>
<path d="M4.93548 24.6774C7.66128 24.6774 9.87097 22.4677 9.87097 19.7419C9.87097 17.0161 7.66128 14.8064 4.93548 14.8064C2.20969 14.8064 0 17.0161 0 19.7419C0 22.4677 2.20969 24.6774 4.93548 24.6774Z" fill="white"/>
<path d="M24.6777 9.87097C27.4035 9.87097 29.6132 7.66128 29.6132 4.93548C29.6132 2.20969 27.4035 0 24.6777 0C21.9519 0 19.7422 2.20969 19.7422 4.93548C19.7422 7.66128 21.9519 9.87097 24.6777 9.87097Z" fill="white"/>
<path d="M34.5488 51C37.2746 51 39.4842 48.7903 39.4842 46.0645C39.4842 43.3387 37.2746 41.129 34.5488 41.129C31.823 41.129 29.6133 43.3387 29.6133 46.0645C29.6133 48.7903 31.823 51 34.5488 51Z" fill="white"/>
<path d="M14.1484 43.7612C16.8742 43.7612 19.0839 41.5515 19.0839 38.8257C19.0839 36.1 16.8742 33.8903 14.1484 33.8903C11.4226 33.8903 9.21289 36.1 9.21289 38.8257C9.21289 41.5515 11.4226 43.7612 14.1484 43.7612Z" fill="white"/>
<path d="M44.4199 13.1613C47.1457 13.1613 49.3553 10.9516 49.3553 8.22577C49.3553 5.49997 47.1457 3.29028 44.4199 3.29028C41.6941 3.29028 39.4844 5.49997 39.4844 8.22577C39.4844 10.9516 41.6941 13.1613 44.4199 13.1613Z" fill="white"/>
<path d="M44.4199 32.9032C47.1457 32.9032 49.3553 30.6935 49.3553 27.9677C49.3553 25.2419 47.1457 23.0322 44.4199 23.0322C41.6941 23.0322 39.4844 25.2419 39.4844 27.9677C39.4844 30.6935 41.6941 32.9032 44.4199 32.9032Z" fill="white"/>
</svg>
