<svg width="58" height="58" viewBox="0 0 58 58" fill="none" xmlns="http://www.w3.org/2000/svg">
<path d="M58 26.1H45.907L55.303 16.704L51.214 12.586L37.7 26.1H31.9V20.3L45.414 6.786L41.296 2.697L31.9 12.093V0H26.1V12.093L16.704 2.697L12.586 6.786L26.1 20.3V26.1H20.3L6.786 12.586L2.697 16.704L12.093 26.1H0V31.9H12.093L2.697 41.296L6.786 45.414L20.3 31.9H26.1V37.7L12.586 51.214L16.704 55.303L26.1 45.907V58H31.9V45.907L41.296 55.303L45.414 51.214L31.9 37.7V31.9H37.7L51.214 45.414L55.303 41.296L45.907 31.9H58V26.1Z" fill="white"/>
</svg>
