<svg width="112" height="23" viewBox="0 0 112 23" fill="none" xmlns="http://www.w3.org/2000/svg">
<path d="M12.1854 0L14.7371 7.80905H22.9943L16.314 12.6353L18.8657 20.4444L12.1854 15.6181L5.50518 20.4444L8.05681 12.6353L1.37656 7.80905H9.6338L12.1854 0Z" fill="#FFE500"/>
<path d="M34.1581 0L36.7097 7.80905H44.967L38.2867 12.6353L40.8383 20.4444L34.1581 15.6181L27.4778 20.4444L30.0295 12.6353L23.3492 7.80905H31.6065L34.1581 0Z" fill="#FFE500"/>
<path d="M56.1307 0L58.6824 7.80905H66.9396L60.2594 12.6353L62.811 20.4444L56.1307 15.6181L49.4505 20.4444L52.0021 12.6353L45.3219 7.80905H53.5791L56.1307 0Z" fill="#FFE500"/>
<path d="M78.1034 0L80.655 7.80905H88.9123L82.232 12.6353L84.7836 20.4444L78.1034 15.6181L71.4231 20.4444L73.9748 12.6353L67.2945 7.80905H75.5518L78.1034 0Z" fill="#FFE500"/>
<path d="M100.076 0L102.628 7.80905H110.885L104.205 12.6353L106.756 20.4444L100.076 15.6181L93.3958 20.4444L95.9474 12.6353L89.2672 7.80905H97.5244L100.076 0Z" fill="#FFE500"/>
</svg>
