<svg width="86" height="90" viewBox="0 0 86 90" fill="none" xmlns="http://www.w3.org/2000/svg">
<path d="M44.7619 1.06187C44.277 0.614725 43.6503 0.367676 43.0009 0.367676C42.3516 0.367676 41.7249 0.614725 41.2399 1.06187C40.2336 1.99145 16.5195 24.0492 16.5195 44.2424C16.5195 51.515 19.3095 58.4897 24.2758 63.6322C29.242 68.7747 35.9776 71.6638 43.0009 71.6638C50.0242 71.6638 56.7599 68.7747 61.7261 63.6322C66.6923 58.4897 69.4823 51.515 69.4823 44.2424C69.4823 24.0492 45.7682 1.99145 44.7619 1.06187ZM43.0009 66.1795C37.3842 66.173 31.9994 63.8596 28.0278 59.747C24.0561 55.6344 21.8221 50.0584 21.8158 44.2424C21.8158 29.4348 37.6305 12.28 43.0009 6.87521C48.374 12.2772 64.1861 29.4348 64.1861 44.2424C64.1798 50.0584 61.9457 55.6344 57.9741 59.747C54.0025 63.8596 48.6176 66.173 43.0009 66.1795V66.1795Z" fill="#D52127"/>
<line x1="5.25781" y1="86.923" x2="80.7391" y2="86.923" stroke="#333333" stroke-width="6" stroke-linecap="round"/>
<line x1="3.97253" y1="54.5016" x2="81.7324" y2="24.401" stroke="#333333" stroke-width="6" stroke-linecap="round"/>
</svg>
