<svg width="42" height="42" viewBox="0 0 42 42" fill="none" xmlns="http://www.w3.org/2000/svg">
<path d="M21.8645 0.340786C21.6264 0.121279 21.3188 0 21 0C20.6812 0 20.3736 0.121279 20.1355 0.340786C19.6415 0.797129 8 11.6255 8 21.5385C8 25.1087 9.36964 28.5327 11.8076 31.0572C14.2456 33.5817 17.5522 35 21 35C24.4478 35 27.7544 33.5817 30.1924 31.0572C32.6304 28.5327 34 25.1087 34 21.5385C34 11.6255 22.3585 0.797129 21.8645 0.340786ZM21 32.3077C18.2427 32.3045 15.5992 31.1689 13.6495 29.15C11.6998 27.131 10.6031 24.3937 10.6 21.5385C10.6 14.2694 18.3636 5.84787 21 3.19461C23.6377 5.84652 31.4 14.2694 31.4 21.5385C31.3969 24.3937 30.3002 27.131 28.3505 29.15C26.4008 31.1689 23.7573 32.3045 21 32.3077Z" fill="#2EC721"/>
<line x1="2" y1="41" x2="40" y2="41" stroke="white" stroke-width="2" stroke-linecap="round"/>
<line x1="1.57157" y1="27.1864" x2="40.6264" y2="12.0684" stroke="white" stroke-width="2" stroke-linecap="round"/>
</svg>
