<svg width="42" height="41" viewBox="0 0 42 41" fill="none" xmlns="http://www.w3.org/2000/svg">
<path d="M1.5 10.0637C1.5 5.33487 5.33583 1.5 10.0694 1.5H31.9306C36.6642 1.5 40.5 5.33489 40.5 10.0637V30.9363C40.5 35.6651 36.6642 39.5 31.9306 39.5H10.0694C5.33584 39.5 1.5 35.6651 1.5 30.9363V10.0637Z" stroke="#2EC721" stroke-width="3"/>
<path d="M10.1237 27H19.1493V24.9538H13.8328V24.8728L15.6812 23.1792C18.2838 20.9595 18.9824 19.8497 18.9824 18.5029C18.9824 16.4509 17.1896 15 14.4757 15C11.8175 15 9.99383 16.4855 10 18.8092H12.5408C12.5346 17.6763 13.3012 16.9827 14.4572 16.9827C15.5699 16.9827 16.3983 17.6301 16.3983 18.6705C16.3983 19.6127 15.7801 20.2601 14.6303 21.2948L10.1237 25.1965V27Z" fill="white"/>
<path d="M23.6729 15.1618H20.6376L24.526 21.0809L20.5634 27H23.6297L26.2261 22.9595H26.325L28.9214 27H32L28.0497 21.0809L31.9135 15.1618H28.8905L26.325 19.1965H26.2261L23.6729 15.1618Z" fill="white"/>
</svg>
