<svg width="88" height="86" viewBox="0 0 88 86" fill="none" xmlns="http://www.w3.org/2000/svg">
<path d="M21 3.36768H66.5923C76.5335 3.36768 84.5923 11.4266 84.5923 21.3677V64.923C84.5923 74.8641 76.5335 82.923 66.5923 82.923H21C11.0589 82.923 3 74.8641 3 64.923V21.3676C3 11.4265 11.0589 3.36768 21 3.36768Z" stroke="#D52127" stroke-width="6"/>
<path d="M22.2486 53.8026H40.3949V49.4027H29.706V49.2287L33.4223 45.587C38.6549 40.8143 40.0593 38.4279 40.0593 35.532C40.0593 31.1197 36.4549 28 30.9986 28C25.6542 28 21.9876 31.1942 22 36.1907H27.1083C27.0959 33.7546 28.6371 32.2631 30.9613 32.2631C33.1985 32.2631 34.864 33.6552 34.864 35.8924C34.864 37.9183 33.6211 39.3104 31.3093 41.5352L22.2486 49.9247V53.8026Z" fill="#333333"/>
<path d="M49.4898 28.348H43.3872L51.205 41.0753L43.238 53.8026H49.4028L54.623 45.1147H54.8219L60.042 53.8026H66.2317L58.2895 41.0753L66.0577 28.348H59.9799L54.8219 37.0234H54.623L49.4898 28.348Z" fill="#333333"/>
</svg>
