<svg width="49" height="49" viewBox="0 0 49 49" fill="none" xmlns="http://www.w3.org/2000/svg">
<path d="M24.5 0C10.976 0 0 10.976 0 24.5C0 38.024 10.976 49 24.5 49C38.024 49 49 38.024 49 24.5C49 10.976 38.024 0 24.5 0ZM4.9 24.5C4.9 23.0055 5.096 21.5355 5.4145 20.139L17.1255 31.85V34.3C17.1255 36.995 19.3305 39.2 22.0255 39.2V43.9285C12.397 42.7035 4.9 34.4715 4.9 24.5ZM38.9305 37.73C38.2935 35.7455 36.4805 34.3 34.2755 34.3H31.8255V26.95C31.8255 25.6025 30.723 24.5 29.3755 24.5H14.6755V19.6H19.5755C20.923 19.6 22.0255 18.4975 22.0255 17.15V12.25H26.9255C29.6205 12.25 31.8255 10.045 31.8255 7.35V6.3455C39.004 9.2365 44.1 16.2925 44.1 24.5C44.1 29.596 42.1155 34.251 38.9305 37.73Z" fill="#D52027"/>
</svg>
