<svg width="87" height="82" viewBox="0 0 87 82" fill="none" xmlns="http://www.w3.org/2000/svg">
<path d="M75.3028 8.33001H69.3681V2.89939C69.3681 2.17925 69.0676 1.4886 68.5328 0.979378C67.998 0.470158 67.2726 0.184082 66.5162 0.184082C65.7599 0.184082 65.0345 0.470158 64.4997 0.979378C63.9648 1.4886 63.6644 2.17925 63.6644 2.89939V8.33001H46.5533V2.89939C46.5533 2.17925 46.2529 1.4886 45.718 0.979378C45.1832 0.470158 44.4578 0.184082 43.7015 0.184082C42.9451 0.184082 42.2197 0.470158 41.6849 0.979378C41.1501 1.4886 40.8496 2.17925 40.8496 2.89939V8.33001H23.7386V2.89939C23.7386 2.17925 23.4381 1.4886 22.9033 0.979378C22.3685 0.470158 21.6431 0.184082 20.8867 0.184082C20.1304 0.184082 19.405 0.470158 18.8702 0.979378C18.3354 1.4886 18.0349 2.17925 18.0349 2.89939V8.33001H12.1002C9.13697 8.33289 6.29597 9.45495 4.20065 11.45C2.10533 13.445 0.926848 16.1499 0.923828 18.9713V21.9066C0.923828 22.6267 1.22429 23.3174 1.75911 23.8266C2.29394 24.3358 3.01932 24.6219 3.77567 24.6219C4.53203 24.6219 5.25741 24.3358 5.79223 23.8266C6.32705 23.3174 6.62752 22.6267 6.62752 21.9066V18.9713C6.62903 17.5898 7.2061 16.2653 8.2321 15.2884C9.2581 14.3115 10.6492 13.7621 12.1002 13.7606H18.0349V16.4759C18.0349 17.1961 18.3354 17.8867 18.8702 18.396C19.405 18.9052 20.1304 19.1913 20.8867 19.1913C21.6431 19.1913 22.3685 18.9052 22.9033 18.396C23.4381 17.8867 23.7386 17.1961 23.7386 16.4759V13.7606H40.8496V16.4759C40.8496 17.1961 41.1501 17.8867 41.6849 18.396C42.2197 18.9052 42.9451 19.1913 43.7015 19.1913C44.4578 19.1913 45.1832 18.9052 45.718 18.396C46.2529 17.8867 46.5533 17.1961 46.5533 16.4759V13.7606H63.6644V16.4759C63.6644 17.1961 63.9648 17.8867 64.4997 18.396C65.0345 18.9052 65.7599 19.1913 66.5162 19.1913C67.2726 19.1913 67.998 18.9052 68.5328 18.396C69.0676 17.8867 69.3681 17.1961 69.3681 16.4759V13.7606H75.3028C76.7537 13.7621 78.1449 14.3115 79.1709 15.2884C80.1969 16.2653 80.7739 17.5898 80.7755 18.9713V70.9994C80.7739 72.3811 80.197 73.706 79.171 74.6833C78.1451 75.6606 76.754 76.2106 75.3028 76.2128H12.1002C10.649 76.2106 9.25784 75.6606 8.23192 74.6833C7.206 73.706 6.62902 72.3811 6.62752 70.9994V35.4831C6.62752 34.763 6.32705 34.0723 5.79223 33.5631C5.25741 33.0539 4.53203 32.7678 3.77567 32.7678C3.01932 32.7678 2.29394 33.0539 1.75911 33.5631C1.22429 34.0723 0.923828 34.763 0.923828 35.4831V70.9994C0.926847 73.821 2.10523 76.5263 4.20047 78.5217C6.29572 80.5171 9.13671 81.6398 12.1002 81.6434H75.3028C78.2663 81.6398 81.1073 80.5171 83.2025 78.5217C85.2977 76.5263 86.4761 73.821 86.4791 70.9994V18.9713C86.4761 16.1499 85.2976 13.445 83.2023 11.45C81.107 9.45495 78.266 8.33289 75.3028 8.33001V8.33001Z" fill="#D52127"/>
<path d="M38.4584 61.2785C38.8751 61.2789 39.2876 61.1978 39.6726 61.0401C40.0576 60.8824 40.4073 60.651 40.7019 60.3593L61.8245 39.4424C62.4017 38.8507 62.7211 38.0582 62.7139 37.2356C62.7067 36.413 62.3734 35.6261 61.7859 35.0444C61.1984 34.4627 60.4037 34.1328 59.5728 34.1256C58.742 34.1185 57.9416 34.4347 57.344 35.0062L38.4584 53.7049L30.1374 45.463C29.8451 45.1634 29.4954 44.9244 29.1088 44.76C28.7222 44.5955 28.3064 44.509 27.8857 44.5054C27.465 44.5017 27.0477 44.5811 26.6583 44.7389C26.2689 44.8966 25.9151 45.1296 25.6176 45.4242C25.32 45.7187 25.0847 46.069 24.9254 46.4546C24.7661 46.8402 24.6859 47.2533 24.6896 47.6699C24.6932 48.0865 24.7806 48.4981 24.9467 48.8809C25.1128 49.2637 25.3542 49.6099 25.6568 49.8993L36.2182 60.3593C36.8123 60.9477 37.6181 61.2784 38.4584 61.2785V61.2785Z" fill="#181C1C"/>
</svg>
