<svg width="42" height="41" viewBox="0 0 42 41" fill="none" xmlns="http://www.w3.org/2000/svg">
<path d="M36.5134 4.90884H33.6V2.24289C33.6 1.88936 33.4525 1.55031 33.1899 1.30033C32.9274 1.05035 32.5713 0.909912 32.2 0.909912C31.8287 0.909912 31.4726 1.05035 31.21 1.30033C30.9475 1.55031 30.8 1.88936 30.8 2.24289V4.90884H22.4V2.24289C22.4 1.88936 22.2525 1.55031 21.99 1.30033C21.7274 1.05035 21.3713 0.909912 21 0.909912C20.6287 0.909912 20.2726 1.05035 20.01 1.30033C19.7475 1.55031 19.6 1.88936 19.6 2.24289V4.90884H11.2V2.24289C11.2 1.88936 11.0525 1.55031 10.7899 1.30033C10.5274 1.05035 10.1713 0.909912 9.8 0.909912C9.4287 0.909912 9.0726 1.05035 8.81005 1.30033C8.5475 1.55031 8.4 1.88936 8.4 2.24289V4.90884H5.4866C4.03192 4.91025 2.63724 5.46108 1.60863 6.44045C0.580009 7.41982 0.00148248 8.74773 0 10.1328V11.5737C0 11.9272 0.1475 12.2663 0.41005 12.5163C0.672601 12.7662 1.0287 12.9067 1.4 12.9067C1.7713 12.9067 2.1274 12.7662 2.38995 12.5163C2.6525 12.2663 2.8 11.9272 2.8 11.5737V10.1328C2.80074 9.45456 3.08403 8.80434 3.58771 8.32478C4.09138 7.84522 4.7743 7.57549 5.4866 7.57479H8.4V8.90776C8.4 9.26129 8.5475 9.60033 8.81005 9.85032C9.0726 10.1003 9.4287 10.2407 9.8 10.2407C10.1713 10.2407 10.5274 10.1003 10.7899 9.85032C11.0525 9.60033 11.2 9.26129 11.2 8.90776V7.57479H19.6V8.90776C19.6 9.26129 19.7475 9.60033 20.01 9.85032C20.2726 10.1003 20.6287 10.2407 21 10.2407C21.3713 10.2407 21.7274 10.1003 21.99 9.85032C22.2525 9.60033 22.4 9.26129 22.4 8.90776V7.57479H30.8V8.90776C30.8 9.26129 30.9475 9.60033 31.21 9.85032C31.4726 10.1003 31.8287 10.2407 32.2 10.2407C32.5713 10.2407 32.9274 10.1003 33.1899 9.85032C33.4525 9.60033 33.6 9.26129 33.6 8.90776V7.57479H36.5134C37.2257 7.57549 37.9086 7.84522 38.4123 8.32478C38.916 8.80434 39.1993 9.45456 39.2 10.1328V35.6739C39.1993 36.3522 38.916 37.0026 38.4124 37.4823C37.9087 37.9621 37.2258 38.2321 36.5134 38.2332H5.4866C4.77417 38.2321 4.09125 37.9621 3.58762 37.4823C3.08399 37.0026 2.80074 36.3522 2.8 35.6739V18.2386C2.8 17.8851 2.6525 17.546 2.38995 17.296C2.1274 17.046 1.7713 16.9056 1.4 16.9056C1.0287 16.9056 0.672601 17.046 0.41005 17.296C0.1475 17.546 0 17.8851 0 18.2386V35.6739C0.00148181 37.0591 0.579964 38.3871 1.60854 39.3667C2.63712 40.3463 4.03179 40.8974 5.4866 40.8992H36.5134C37.9682 40.8974 39.3629 40.3463 40.3915 39.3667C41.42 38.3871 41.9985 37.0591 42 35.6739V10.1328C41.9985 8.74773 41.42 7.41982 40.3914 6.44045C39.3628 5.46108 37.9681 4.91025 36.5134 4.90884Z" fill="white"/>
<path d="M18.4273 30.9017C18.6318 30.9019 18.8344 30.8621 19.0234 30.7847C19.2123 30.7073 19.384 30.5937 19.5286 30.4505L29.898 20.1822C30.1813 19.8917 30.3381 19.5026 30.3346 19.0988C30.331 18.695 30.1674 18.3087 29.879 18.0231C29.5906 17.7376 29.2005 17.5756 28.7926 17.5721C28.3847 17.5686 27.9918 17.7238 27.6984 18.0044L18.4273 27.1838L14.3424 23.1377C14.1989 22.9906 14.0273 22.8733 13.8375 22.7926C13.6477 22.7119 13.4436 22.6694 13.237 22.6676C13.0305 22.6658 12.8257 22.7048 12.6345 22.7822C12.4433 22.8597 12.2696 22.974 12.1236 23.1187C11.9775 23.2633 11.862 23.4352 11.7838 23.6245C11.7056 23.8138 11.6662 24.0166 11.668 24.2211C11.6698 24.4256 11.7127 24.6277 11.7943 24.8156C11.8758 25.0035 11.9943 25.1735 12.1429 25.3155L17.3275 30.4505C17.6192 30.7393 18.0148 30.9017 18.4273 30.9017Z" fill="#2EC721"/>
</svg>
